<?xml version="1.0" encoding="UTF-8" standalone="no"?>
<svg
   xmlns:dc="http://purl.org/dc/elements/1.1/"
   xmlns:cc="http://creativecommons.org/ns#"
   xmlns:rdf="http://www.w3.org/1999/02/22-rdf-syntax-ns#"
   xmlns:svg="http://www.w3.org/2000/svg"
   xmlns="http://www.w3.org/2000/svg"
   xmlns:sodipodi="http://sodipodi.sourceforge.net/DTD/sodipodi-0.dtd"
   xmlns:inkscape="http://www.inkscape.org/namespaces/inkscape"
   sodipodi:docname="icon-project-inf.svg"
   inkscape:version="1.0 (4035a4fb49, 2020-05-01)"
   id="svg1963"
   version="1.1"
   viewBox="0 0 100 100"
   height="100mm"
   width="100mm">
  <defs
     id="defs1957" />
  <sodipodi:namedview
     inkscape:window-maximized="1"
     inkscape:window-y="341"
     inkscape:window-x="-8"
     inkscape:window-height="1017"
     inkscape:window-width="1920"
     showgrid="false"
     inkscape:document-rotation="0"
     inkscape:current-layer="layer1"
     inkscape:document-units="mm"
     inkscape:cy="40.158022"
     inkscape:cx="23.560685"
     inkscape:zoom="0.9899495"
     inkscape:pageshadow="2"
     inkscape:pageopacity="0.0"
     borderopacity="1.0"
     bordercolor="#666666"
     pagecolor="#ffffff"
     id="base"
     inkscape:snap-bbox="true"
     inkscape:snap-bbox-midpoints="true" />
  <metadata
     id="metadata1960">
    <rdf:RDF>
      <cc:Work
         rdf:about="">
        <dc:format>image/svg+xml</dc:format>
        <dc:type
           rdf:resource="http://purl.org/dc/dcmitype/StillImage" />
        <dc:title></dc:title>
      </cc:Work>
    </rdf:RDF>
  </metadata>
  <g
     id="layer1"
     inkscape:groupmode="layer"
     inkscape:label="Layer 1">
    <path
       transform="scale(0.26458333)"
       d="M 188.65039 9.4492188 A 179.52756 179.52756 0 0 0 9.4492188 188.97656 A 179.52756 179.52756 0 0 0 188.97656 368.50391 A 179.52756 179.52756 0 0 0 368.50391 188.97656 A 179.52756 179.52756 0 0 0 188.97656 9.4492188 A 179.52756 179.52756 0 0 0 188.65039 9.4492188 z M 132.69922 94.492188 A 38.487496 51.106696 51.755273 0 1 161.5 108.03516 A 38.487496 51.106696 51.755273 0 1 158.63867 152.62109 A 78.430012 78.430012 0 0 1 188.77734 146.59961 A 78.430012 78.430012 0 0 1 219.46289 152.85352 A 51.106696 38.487496 38.244727 0 1 216.45312 108.03516 A 51.106696 38.487496 38.244727 0 1 279.59766 106.59766 A 51.106696 38.487496 38.244727 0 1 298.83398 168.46094 A 51.106696 38.487496 38.244727 0 1 252.03711 178.66992 A 78.430012 78.430012 0 0 1 267.20898 225.03125 A 78.430012 78.430012 0 0 1 188.77734 303.46094 A 78.430012 78.430012 0 0 1 110.34766 225.03125 A 78.430012 78.430012 0 0 1 125.375 178.86133 A 38.487496 51.106696 51.755273 0 1 79.119141 168.46094 A 38.487496 51.106696 51.755273 0 1 98.355469 106.59766 A 38.487496 51.106696 51.755273 0 1 132.69922 94.492188 z "
       style="fill:#ffffff;fill-opacity:1;stroke:none;stroke-width:17.7213"
       id="path872" />
  </g>
</svg>
