<?xml version="1.0" encoding="UTF-8" standalone="no"?>
<svg
   xmlns:dc="http://purl.org/dc/elements/1.1/"
   xmlns:cc="http://creativecommons.org/ns#"
   xmlns:rdf="http://www.w3.org/1999/02/22-rdf-syntax-ns#"
   xmlns:svg="http://www.w3.org/2000/svg"
   xmlns="http://www.w3.org/2000/svg"
   xmlns:sodipodi="http://sodipodi.sourceforge.net/DTD/sodipodi-0.dtd"
   xmlns:inkscape="http://www.inkscape.org/namespaces/inkscape"
   sodipodi:docname="mod-type-powerdisc.svg"
   inkscape:version="1.0 (4035a4fb49, 2020-05-01)"
   id="svg1963"
   version="1.1"
   viewBox="0 0 100 100"
   height="100mm"
   width="100mm">
  <defs
     id="defs1957" />
  <sodipodi:namedview
     inkscape:window-maximized="1"
     inkscape:window-y="341"
     inkscape:window-x="-8"
     inkscape:window-height="1017"
     inkscape:window-width="1920"
     showgrid="false"
     inkscape:document-rotation="0"
     inkscape:current-layer="layer1"
     inkscape:document-units="mm"
     inkscape:cy="174.98047"
     inkscape:cx="96.921768"
     inkscape:zoom="1.4"
     inkscape:pageshadow="2"
     inkscape:pageopacity="0.0"
     borderopacity="1.0"
     bordercolor="#666666"
     pagecolor="#ffffff"
     id="base" />
  <metadata
     id="metadata1960">
    <rdf:RDF>
      <cc:Work
         rdf:about="">
        <dc:format>image/svg+xml</dc:format>
        <dc:type
           rdf:resource="http://purl.org/dc/dcmitype/StillImage" />
        <dc:title></dc:title>
      </cc:Work>
    </rdf:RDF>
  </metadata>
  <g
     id="layer1"
     inkscape:groupmode="layer"
     inkscape:label="Layer 1">
    <g
       transform="matrix(34.843307,0,0,34.843307,-1566.6773,-1541.1111)"
       id="g1214">
      <path
         id="path1136"
         style="fill:#ffffff;fill-opacity:1;stroke:none;stroke-width:0.0260629px;stroke-linecap:butt;stroke-linejoin:miter;stroke-opacity:1"
         d="m 46.687834,44.28716 -1.566476,0.589776 v 1.57569 l 0.976751,0.589726 1.57574,-0.608153 v -1.584954 z m -0.0706,0.335154 0.746154,0.425355 v 1.199304 l -1.192432,0.460226 -0.73913,-0.446227 v -1.192381 z m -0.02072,0.09855 -1.073366,0.404078 v 1.079628 l 0.669238,0.404129 1.079679,-0.416702 v -1.085991 z m -0.01695,0.08038 0.618027,0.352359 v 0.993447 l -0.987694,0.381222 -0.612277,-0.369667 v -0.987694 z" />
      <circle
         r="0.33423969"
         cy="45.599697"
         cx="46.106159"
         id="circle1196"
         style="fill:#ffffff;fill-opacity:1;stroke:none;stroke-width:0.0851803;stroke-miterlimit:4;stroke-dasharray:none;stroke-opacity:1" />
      <path
         id="path1198"
         style="fill:#ffffff;fill-opacity:1;stroke:none;stroke-width:0.532792;stroke-miterlimit:4;stroke-dasharray:none;stroke-opacity:1"
         d="m 174.25,174.03906 v 0.002 c -0.7264,0.014 -1.42605,0.36062 -1.86082,0.6092 l 2.22449,1.32678 2.1168,-0.85591 c -0.0316,-0.0625 -0.0622,-0.12828 -0.10352,-0.16406 -0.29918,-0.25893 -1.18352,-0.89328 -2.35742,-0.91601 v -0.002 c -0.004,5e-5 -0.006,0.002 -0.01,0.002 -0.003,-5e-5 -0.007,-0.002 -0.01,-0.002 z"
         transform="scale(0.26458333)"
         sodipodi:nodetypes="cccccccccc" />
    </g>
  </g>
</svg>
