<?xml version="1.0" encoding="UTF-8" standalone="no"?>
<svg
   xmlns:dc="http://purl.org/dc/elements/1.1/"
   xmlns:cc="http://creativecommons.org/ns#"
   xmlns:rdf="http://www.w3.org/1999/02/22-rdf-syntax-ns#"
   xmlns:svg="http://www.w3.org/2000/svg"
   xmlns="http://www.w3.org/2000/svg"
   xmlns:sodipodi="http://sodipodi.sourceforge.net/DTD/sodipodi-0.dtd"
   xmlns:inkscape="http://www.inkscape.org/namespaces/inkscape"
   sodipodi:docname="mod-type-character.svg"
   inkscape:version="1.0 (4035a4fb49, 2020-05-01)"
   id="svg1963"
   version="1.1"
   viewBox="0 0 100 100"
   height="100mm"
   width="100mm">
  <defs
     id="defs1957" />
  <sodipodi:namedview
     inkscape:window-maximized="1"
     inkscape:window-y="341"
     inkscape:window-x="-8"
     inkscape:window-height="1017"
     inkscape:window-width="1920"
     showgrid="false"
     inkscape:document-rotation="0"
     inkscape:current-layer="layer1"
     inkscape:document-units="mm"
     inkscape:cy="174.98047"
     inkscape:cx="96.921768"
     inkscape:zoom="1.4"
     inkscape:pageshadow="2"
     inkscape:pageopacity="0.0"
     borderopacity="1.0"
     bordercolor="#666666"
     pagecolor="#ffffff"
     id="base" />
  <metadata
     id="metadata1960">
    <rdf:RDF>
      <cc:Work
         rdf:about="">
        <dc:format>image/svg+xml</dc:format>
        <dc:type
           rdf:resource="http://purl.org/dc/dcmitype/StillImage" />
        <dc:title></dc:title>
      </cc:Work>
    </rdf:RDF>
  </metadata>
  <g
     id="layer1"
     inkscape:groupmode="layer"
     inkscape:label="Layer 1">
    <g
       id="g1229"
       transform="matrix(32.61528,0,0,34.943735,-1327.9692,-1549.9072)">
      <g
         id="g1194">
        <circle
           r="0.63787413"
           cy="45.206871"
           cx="42.253166"
           id="path1017"
           style="fill:#ffffff;fill-opacity:1;stroke:none;stroke-width:0.162561;stroke-miterlimit:4;stroke-dasharray:none;stroke-opacity:1" />
        <path
           sodipodi:nodetypes="ccscsccscccsc"
           d="m 42.248257,46.062295 v 5.18e-4 c -0.592749,0.01144 -1.039561,0.331759 -1.190625,0.462502 -0.117525,0.101717 -0.169804,0.474442 -0.01705,0.476363 0,0 0.583165,0.0045 1.20768,0.0072 0.0051,2.4e-5 0.0098,0 0.0098,0 0.624512,-0.0027 1.207677,-0.0072 1.207677,-0.0072 0.152755,-0.0019 0.10047,-0.374643 -0.01705,-0.476363 -0.15107,-0.130743 -0.597877,-0.451021 -1.190625,-0.462502 v -5.18e-4 c -0.0018,2.3e-5 -0.0034,4.89e-4 -0.0052,5.18e-4 -0.0016,-2.6e-5 -0.003,-4.97e-4 -0.0046,-5.18e-4 z"
           style="fill:#ffffff;fill-opacity:1;stroke:none;stroke-width:0.269028;stroke-miterlimit:4;stroke-dasharray:none;stroke-opacity:1"
           id="circle1019" />
      </g>
    </g>
  </g>
</svg>
