<?xml version="1.0" encoding="UTF-8" standalone="no"?>
<svg
   xmlns:dc="http://purl.org/dc/elements/1.1/"
   xmlns:cc="http://creativecommons.org/ns#"
   xmlns:rdf="http://www.w3.org/1999/02/22-rdf-syntax-ns#"
   xmlns:svg="http://www.w3.org/2000/svg"
   xmlns="http://www.w3.org/2000/svg"
   xmlns:sodipodi="http://sodipodi.sourceforge.net/DTD/sodipodi-0.dtd"
   xmlns:inkscape="http://www.inkscape.org/namespaces/inkscape"
   width="100mm"
   height="100mm"
   viewBox="0 0 100 100"
   version="1.1"
   id="svg1963"
   inkscape:version="1.0 (4035a4fb49, 2020-05-01)"
   sodipodi:docname="mod-type-costimecoin.svg">
  <defs
     id="defs1957" />
  <sodipodi:namedview
     id="base"
     pagecolor="#ffffff"
     bordercolor="#666666"
     borderopacity="1.0"
     inkscape:pageopacity="0.0"
     inkscape:pageshadow="2"
     inkscape:zoom="1.4"
     inkscape:cx="96.921768"
     inkscape:cy="174.98047"
     inkscape:document-units="mm"
     inkscape:current-layer="layer1"
     inkscape:document-rotation="0"
     showgrid="false"
     inkscape:window-width="2560"
     inkscape:window-height="1377"
     inkscape:window-x="1912"
     inkscape:window-y="-8"
     inkscape:window-maximized="1" />
  <metadata
     id="metadata1960">
    <rdf:RDF>
      <cc:Work
         rdf:about="">
        <dc:format>image/svg+xml</dc:format>
        <dc:type
           rdf:resource="http://purl.org/dc/dcmitype/StillImage" />
        <dc:title />
      </cc:Work>
    </rdf:RDF>
  </metadata>
  <g
     inkscape:label="Layer 1"
     inkscape:groupmode="layer"
     id="layer1">
    <g
       id="g2693"
       transform="matrix(27.675459,0,0,27.675459,-1503.9644,-1227.5413)">
      <circle
         r="1.5296224"
         cy="46.161522"
         cx="56.149544"
         id="path2647"
         style="fill:none;fill-opacity:1;stroke:#ffffff;stroke-width:0.265;stroke-miterlimit:4;stroke-dasharray:none;stroke-opacity:1" />
      <circle
         style="fill:none;fill-opacity:1;stroke:#ffffff;stroke-width:0.152836;stroke-miterlimit:4;stroke-dasharray:none;stroke-opacity:1"
         id="circle2649"
         cx="56.149544"
         cy="46.161522"
         r="1.0898044" />
      <path
         d="m 55.716341,44.6319 v 0.578777 a 1.2631124,1.01254 0 0 1 0.433203,-0.06149 1.2631124,1.01254 0 0 1 0.433203,0.06098 V 44.6319 Z m 0.866406,2.480469 a 1.2631124,1.01254 0 0 1 -0.433203,0.0615 1.2631124,1.01254 0 0 1 -0.433203,-0.06098 v 0.57826 h 0.866406 z"
         style="fill:#ffffff;fill-opacity:1;stroke:none;stroke-width:0.1586;stroke-miterlimit:4;stroke-dasharray:none;stroke-opacity:1"
         id="rect2660" />
      <circle
         style="fill:#ffffff;fill-opacity:1;stroke:none;stroke-width:0.111087;stroke-miterlimit:4;stroke-dasharray:none;stroke-opacity:1"
         id="circle2669"
         cx="56.149548"
         cy="45.980083"
         r="0.43589309" />
      <path
         transform="scale(0.26458333)"
         d="m 212.20703,175.99219 v 0.002 c -1.53092,0.0295 -2.68601,0.85568 -3.07617,1.19336 -9.2e-4,8e-4 -0.001,0.003 -0.002,0.004 a 4.1189458,4.1189458 0 0 0 1.96484,1.23828 c 0.48486,0.003 0.53758,0.005 1.11328,0.008 0.0132,6e-5 0.0234,0 0.0234,0 0.5757,-0.002 0.62842,-0.005 1.11328,-0.008 a 4.1189458,4.1189458 0 0 0 1.96484,-1.23828 c -9.2e-4,-8.2e-4 -0.001,-0.003 -0.002,-0.004 -0.39018,-0.33766 -1.54525,-1.16371 -3.07617,-1.19336 v -0.002 c -0.005,5e-5 -0.007,0.002 -0.0117,0.002 -0.004,-7e-5 -0.008,-0.002 -0.0117,-0.002 z"
         style="fill:#ffffff;fill-opacity:1;stroke:none;stroke-width:0.694832;stroke-miterlimit:4;stroke-dasharray:none;stroke-opacity:1"
         id="path2671" />
    </g>
  </g>
</svg>
